<?xml version="1.0" encoding="UTF-8" standalone="no"?>
<!-- Created with Inkscape (http://www.inkscape.org/) -->

<svg
   width="210mm"
   height="200mm"
   viewBox="0 0 210 200"
   version="1.1"
   id="svg5"
   inkscape:version="1.1.1 (3bf5ae0d25, 2021-09-20)"
   sodipodi:docname="рисунок.svg"
   xmlns:inkscape="http://www.inkscape.org/namespaces/inkscape"
   xmlns:sodipodi="http://sodipodi.sourceforge.net/DTD/sodipodi-0.dtd"
   xmlns="http://www.w3.org/2000/svg"
   xmlns:svg="http://www.w3.org/2000/svg">
  <sodipodi:namedview
     id="namedview7"
     pagecolor="#ffffff"
     bordercolor="#666666"
     borderopacity="1.0"
     inkscape:pageshadow="2"
     inkscape:pageopacity="0.0"
     inkscape:pagecheckerboard="0"
     inkscape:document-units="mm"
     showgrid="false"
     inkscape:zoom="0.51150168"
     inkscape:cx="404.69075"
     inkscape:cy="585.53082"
     inkscape:window-width="1920"
     inkscape:window-height="1001"
     inkscape:window-x="-9"
     inkscape:window-y="-9"
     inkscape:window-maximized="1"
     inkscape:current-layer="layer1" />
  <defs
     id="defs2" />
  <g
     inkscape:label="Слой 1"
     inkscape:groupmode="layer"
     id="layer1">
    <g
       id="g118"
       transform="matrix(1.07378,0,0,1.07378,-15.145497,-5.6566697)">
      <path
         style="fill:#000000;stroke-width:0.264583"
         d="m 16.012782,137.82847 c 0.0666,-48.143218 0.0984,-51.243128 0.54147,-52.737318 0.67442,-2.27429 2.08734,-5.153274 3.61012,-7.356064 1.27685,-1.84703 4.88348,-5.63744 6.50122,-6.83251 0.43656,-0.3225 0.89217,-0.67037 1.01247,-0.77303 0.12029,-0.10266 -0.13165,-0.88596 -0.55987,-1.74065 -1.88323,-3.75878 -2.70156,-7.31508 -2.70156,-11.74045 0,-5.54982 1.32809,-9.77439 4.61268,-14.67257 0.67238,-1.00269 1.12998,-1.90117 1.01689,-1.99663 -0.11309,-0.0955 -1.23813,-0.85017 -2.5001,-1.67714 -3.83119,-2.51057 -6.59256,-6.06162 -7.73419,-9.94595 -0.63816,-2.17132 -0.57871,-7.78822 0.11028,-10.4187 1.07544,-4.105904 2.5708,-7.089922 4.98485,-9.947327 l 1.20829,-1.430196 0.45615,1.807464 c 1.01488,4.021424 3.51887,5.916412 11.20661,8.481039 3.64744,1.21679 9.06352,1.7652 22.88645,2.31742 3.14706,0.12573 5.62081,1.08067 8.33438,3.21732 1.01865,0.80208 1.99169,1.52674 2.16232,1.61037 0.17063,0.0836 1.1496,-0.48747 2.17551,-1.26909 2.67911,-2.04117 5.05216,-3.15217 7.29461,-3.41514 1.02372,-0.12006 4.89741,-0.34407 8.60819,-0.49782 6.21893,-0.25767 12.760288,-0.94877 14.684368,-1.551424 4.78032,-1.497272 8.57923,-3.284467 10.08025,-4.742239 1.14941,-1.116289 2.48695,-3.813564 2.48725,-5.015738 1.1e-4,-0.472943 0.0895,-0.859451 0.19864,-0.858908 0.30951,0.0015 2.51952,2.870206 3.56633,4.629221 4.03628,6.782348 4.47011,15.271568 1.0729,20.994388 -1.24721,2.10102 -4.37302,5.10457 -6.88819,6.61878 -1.05502,0.63516 -1.91822,1.20902 -1.91822,1.27525 0,0.0662 0.34149,0.61811 0.75887,1.22641 1.77192,2.58243 3.63044,7.00437 4.52377,10.7633 0.75273,3.16729 0.75377,8.95777 0.002,12.06689 -0.86931,3.59602 -2.92726,7.7863 -5.19721,10.58222 -0.48474,0.59707 -0.88136,1.16262 -0.88136,1.25677 0,0.0942 21.9075,0.17119 48.68334,0.17119 38.77239,0 48.68252,0.0673 48.67936,0.33073 -0.008,0.68516 -1.28411,4.415424 -2.08222,6.087704 -2.38552,4.9985 -5.7085,7.68257 -12.06897,9.74846 -4.7555,1.54459 -5.06305,1.56019 -30.75456,1.56019 h -23.48422 l 1.98397,1.97862 1.98398,1.97862 28.40601,0.006 28.406,0.006 -0.17742,0.99219 c -0.52926,2.959828 -2.31771,6.876608 -4.19823,9.194278 -2.24583,2.7679 -4.42788,4.18968 -8.9124,5.80716 -4.49302,1.62053 -5.61347,1.72478 -18.58698,1.72932 -6.51206,0.002 -11.84011,0.0786 -11.84011,0.1695 0,0.0909 0.31392,0.86485 0.69759,1.71979 l 0.6976,1.55444 h 13.85953 13.85953 l -0.172,0.7276 c -0.27728,1.17296 -1.83082,4.4209 -2.76185,5.77409 -1.18679,1.72495 -4.43266,4.87782 -6.53388,6.34668 -4.98097,3.48195 -11.82834,6.19321 -19.64652,7.77917 -10.98549,2.22847 -22.13237,1.254 -31.95153,-2.79323 -1.20225,-0.49553 -2.23447,-0.90098 -2.29383,-0.90098 -0.0593,0 -0.85688,1.25731 -1.77227,2.79402 -3.87212,6.50029 -10.21805,13.04718 -17.5081,18.06255 -9.569668,6.58367 -21.136898,11.70629 -34.183628,15.13843 -2.18282,0.57422 -4.08782,1.04157 -4.23334,1.03855 -0.14552,-0.003 0.31981,-0.30558 1.03407,-0.67235 2.20311,-1.13131 5.74053,-3.83898 8.03219,-6.14814 4.09104,-4.12228 6.69309,-8.81648 7.76384,-14.00623 0.26125,-1.26628 0.46777,-1.69119 0.88355,-1.8179 1.22508,-0.37334 5.70091,-2.63085 8.19529,-4.13353 5.974549,-3.59922 11.590758,-8.50459 14.922218,-13.03352 2.03326,-2.76411 4.48667,-7.44134 5.28915,-10.08335 2.04965,-6.74801 1.76419,-15.36522 -0.75974,-22.93458 -2.95732,-8.869128 -9.90253,-17.183088 -18.068868,-21.629872 l -1.81246,-0.98693 2.05595,-1.55139 c 1.13077,-0.85327 2.54169,-1.91976 3.135379,-2.36998 2.12816,-1.61389 6.223149,-5.41558 7.432389,-6.90005 2.1636,-2.65604 3.58026,-5.96095 4.11096,-9.59039 0.95735,-6.5474 -2.67418,-14.41314 -7.86997,-17.04605 -3.251089,-1.64745 -7.996298,-2.81887 -11.418748,-2.81887 -6.58572,0 -12.98248,3.91402 -16.57472,10.14167 l -0.73726,1.27814 -0.89479,-1.67501 c -2.93234,-5.4892 -10.60497,-9.86455 -17.21609,-9.81754 -5.93524,0.0422 -12.29939,3.25678 -15.25776,7.7068 -1.86849,2.8106 -2.53937,5.17629 -2.53937,8.95437 0,5.83884 1.98644,10.60911 5.9919,14.38903 3.16116,2.98316 8.81822,7.65635 14.2271,11.75274 5.72541,4.336124 7.14629,5.507894 9.19294,7.581244 6.14237,6.22254 10.95452,14.472388 13.61171,23.335618 0.35551,1.18584 0.70803,2.51325 0.78338,2.94981 0.0754,0.43657 0.24477,1.21047 0.3765,1.7198 0.41558,1.6069 1.05967,7.97224 1.0575,10.45104 -0.002,2.53477 -0.60026,8.38817 -1.08131,10.58333 -1.70556,7.78304 -3.06933,11.83839 -5.53551,16.46061 -1.87691,3.51779 -3.23981,5.40759 -5.66404,7.85375 -2.25496,2.27535 -4.39191,3.73812 -7.02266,4.80709 -2.94964,1.19855 -2.65418,2.65627 -2.65418,-13.09476 v -13.73894 l -1.48718,-0.68085 c -0.81795,-0.37447 -1.59753,-0.68086 -1.73239,-0.68086 -0.1475,0 -0.22947,4.71832 -0.2057,11.84011 0.0427,12.81256 0.01,13.20616 -1.49524,17.92552 -1.45396,4.55886 -3.23227,7.3389 -6.14222,9.60215 -2.33416,1.81542 -6.05028,3.53266 -8.97946,4.14945 l -0.85989,0.18107 v -28.2715 -28.2715 l -2.11667,-2.10425 -2.11667,-2.10426 -2.6e-4,23.674 c -2.6e-4,25.58889 0.002,25.53657 -1.45051,30.29899 -1.43768,4.7134 -3.21136,7.65802 -5.90438,9.80226 -2.21054,1.76009 -6.09997,3.64663 -8.65204,4.19662 -0.43656,0.0941 -1.00388,0.23352 -1.26072,0.30987 -0.44527,0.13236 -0.46368,-2.23743 -0.39625,-51.01101 z m 47.98342,-16.42325 c -1.13474,-16.76348 -9.419,-29.802058 -24.36603,-38.349598 -3.12017,-1.78429 -5.75612,-2.913444 -5.97491,-2.559444 -0.3426,0.554344 -0.58768,4.700154 -0.41135,6.958404 0.54101,6.92865 2.62777,13.024528 6.31657,18.452028 1.69577,2.49506 2.24486,3.17994 4.69667,5.85816 1.53774,1.67974 5.33531,4.72781 8.34279,6.69624 2.744,1.79597 10.29215,5.65619 11.05993,5.65619 0.49494,0 0.51109,-0.13021 0.33633,-2.71198 z m 80.255248,1.98438 c -0.42304,-1.1279 -3.87399,-7.94788 -4.68114,-9.25119 -2.77681,-4.48371 -7.52949,-9.96803 -10.77556,-12.43438 -0.87313,-0.6634 -1.75608,-1.33893 -1.96212,-1.50119 -0.31215,-0.245828 -0.34245,-0.16596 -0.18175,0.47899 1.19143,4.78142 1.89826,13.20481 1.48013,17.63879 -0.15425,1.63562 -0.18707,3.06002 -0.0729,3.16534 0.3617,0.33376 5.13284,1.60948 7.88043,2.10709 1.45521,0.26355 3.98234,0.48929 5.61585,0.50166 l 2.97001,0.0225 z M 73.692132,40.942908 c 1.83819,-2.3544 3.91184,-3.75382 7.34533,-4.9571 1.64874,-0.57781 2.18442,-0.61006 12.96459,-0.78062 11.967898,-0.18935 12.573968,-0.25165 15.565218,-1.60013 5.40979,-2.43877 8.11369,-7.8112 7.1866,-14.2792 -0.18644,-1.3007 -0.44078,-2.364907 -0.5652,-2.364907 -0.12441,0 -0.22621,0.104569 -0.22621,0.232375 0,0.127806 -0.78495,1.080192 -1.74433,2.116412 -1.46097,1.57798 -1.96598,1.94548 -3.10885,2.26231 -2.74657,0.76142 -8.29105,1.48734 -15.324458,2.00638 -10.59238,0.78168 -13.34014,1.3545 -16.77608,3.49726 -3.89963,2.43193 -6.35267,6.84295 -7.32326,13.1686 -0.30508,1.98831 -0.3911,2.25306 -0.41164,1.26701 -0.0448,-2.15296 -1.0477,-5.7926 -2.28906,-8.30761 -0.92367,-1.87135 -1.58852,-2.79538 -2.973,-4.13198 -3.17765,-3.06776 -6.28188,-4.1865 -13.41703,-4.8354 -2.32833,-0.21175 -6.25739,-0.56862 -8.73125,-0.79304 -8.67183,-0.7867 -12.16322,-1.38183 -13.51547,-2.3038 -0.4485,-0.3058 -1.45635,-1.31054 -2.23966,-2.23278 -1.23749,-1.45696 -1.45921,-1.616366 -1.69128,-1.21595 -0.40466,0.69821 -0.52045,6.23657 -0.16029,7.6669 1.06245,4.21937 3.8296,7.194 8.35316,8.97947 l 1.84521,0.72832 11.24479,0.17815 c 11.6504,0.18459 12.75034,0.28608 15.61042,1.44038 3.36117,1.35652 6.28655,4.19519 7.55883,7.33476 l 0.51096,1.26088 0.72833,-1.62059 c 0.40057,-0.89133 1.11321,-2.11357 1.58363,-2.7161 z m -2.87237,44.832474 c -0.93849,-0.57073 -2.84212,-3.41205 -3.57073,-5.329614 -1.02688,-2.70253 -1.55362,-5.56923 -1.55554,-8.46583 -0.002,-2.63851 0.0411,-2.86024 0.77775,-4.02178 1.03586,-1.63338 2.49636,-2.57277 4.2849,-2.75603 3.47027,-0.35558 6.19231,1.76096 6.70161,5.21087 0.18504,1.25338 -0.43024,6.13779 -1.03241,8.19586 -0.88572,3.027194 -3.0449,6.691834 -4.3563,7.393664 -0.33036,0.17681 -0.69365,0.11076 -1.24928,-0.22714 z M 51.708622,70.627228 c -4.75759,-0.67261 -9.18886,-3.91143 -11.26435,-8.23313 -1.14398,-2.38204 -1.52457,-4.00372 -1.53474,-6.5394 -0.0394,-9.83235 9.43819,-17.13955 18.84992,-14.53319 2.72571,0.75482 4.56613,1.86369 6.7423,4.0623 4.69382,4.74222 5.68045,11.45711 2.56401,17.45041 -2.85978,5.4997 -9.11742,8.67514 -15.35714,7.79301 z m 5.93621,-6.74802 c 1.68868,-0.79955 3.39406,-2.46275 4.29429,-4.18805 0.59962,-1.14918 0.69155,-1.653 0.70003,-3.83646 0.009,-2.25376 -0.0687,-2.66844 -0.74965,-4.01226 -0.92571,-1.82691 -2.20901,-3.09827 -4.13537,-4.0969 -1.2843,-0.66578 -1.73489,-0.75438 -3.83646,-0.75438 -2.02362,0 -2.60597,0.10536 -3.87757,0.70151 -1.76611,0.82799 -3.39138,2.41506 -4.24195,4.14227 -0.47184,0.95813 -0.63232,1.7976 -0.70285,3.67654 -0.0801,2.13421 -0.012,2.60799 0.55188,3.83646 1.17621,2.5627 3.78054,4.70107 6.37706,5.23608 1.61725,0.33323 4.08062,0.0243 5.62059,-0.70481 z m -5.8811,-4.29989 c -1.12216,-0.68425 -1.25652,-0.97434 -0.7718,-1.66636 0.22671,-0.32368 0.4122,-0.83891 0.4122,-1.14497 0,-0.58829 -1.00823,-1.70704 -1.53841,-1.70704 -0.87797,0 0.34974,-2.13717 1.78227,-3.10255 1.22751,-0.82723 3.31088,-0.83013 4.52133,-0.006 1.40714,0.95769 1.93568,1.87584 2.0541,3.56831 0.0892,1.2751 0.004,1.67559 -0.51832,2.44466 -1.39912,2.05886 -4.0369,2.77553 -5.94137,1.61425 z m 35.27193,11.0443 c -5.90313,-0.71566 -11.13627,-5.42564 -12.51164,-11.26083 -0.5954,-2.52605 -0.37403,-6.80775 0.45494,-8.79975 1.36154,-3.27172 3.10611,-5.45867 5.71097,-7.15914 2.86453,-1.86999 4.89347,-2.47974 8.28503,-2.48986 4.3422,-0.013 7.746389,1.34347 10.643539,4.24101 6.611569,6.61246 5.678299,17.50379 -1.9595,22.86761 -3.080899,2.16363 -6.773469,3.0677 -10.623339,2.60096 z m 5.85721,-6.77379 c 1.63359,-0.79989 3.101039,-2.13208 3.969019,-3.6032 0.68551,-1.16186 0.90492,-1.16354 -2.330679,0.0178 -1.77171,0.64686 -2.35299,0.72585 -5.42395,0.73708 -2.95156,0.0108 -3.72114,-0.0791 -5.42396,-0.63389 -1.09141,-0.35555 -2.1332,-0.75709 -2.31511,-0.89229 -0.62103,-0.46162 -0.35396,0.50123 0.44494,1.60408 2.50945,3.4642 7.24476,4.64824 11.07974,2.77043 z m 1.24147,-8.48196 c 2.619099,-0.84467 3.572359,-1.33434 3.566069,-1.83182 -0.0212,-1.67575 -2.542909,-4.7104 -4.888989,-5.88343 -1.11713,-0.55857 -1.69333,-0.66146 -3.70416,-0.66146 -2.05456,0 -2.5809,0.0983 -3.83646,0.71681 -0.80037,0.39424 -1.92057,1.16815 -2.48934,1.71979 -1.1086,1.0752 -2.68214,4.08152 -2.45125,4.68321 0.15446,0.40251 2.91283,1.39405 4.87635,1.75289 2.03018,0.37102 7.11541,0.0885 8.92778,-0.49599 z"
         id="path934" />
      <path
         style="fill:#753a14;fill-opacity:1;stroke-width:9.22189"
         d="m 61.830809,517.8432 0.377794,-195.35222 7.445739,-14.97811 c 6.680813,-13.43937 8.918675,-16.45105 21.783235,-29.31561 l 14.337493,-14.33749 -4.14364,-9.44092 c -6.747122,-15.3727 -8.67961,-26.15385 -7.939201,-44.29201 0.791664,-19.39381 3.777326,-29.53445 13.418871,-45.5765 3.81591,-6.34906 6.93256,-12.22207 6.92592,-13.05112 -0.007,-0.82905 -3.73958,-3.90894 -8.2954,-6.84419 -11.01389,-7.09611 -21.590381,-18.89094 -26.824704,-29.91472 -4.109608,-8.65507 -4.263162,-9.64692 -4.173373,-26.957059 0.08573,-16.528473 0.42999,-18.863176 4.28771,-29.078802 4.459392,-11.808916 9.440216,-20.596846 15.866362,-27.993853 3.020901,-3.4773 3.948106,-3.963013 3.958448,-2.073621 0.02687,4.910628 6.660137,16.58485 11.857847,20.869238 5.89659,4.860466 24.23045,12.985305 36.29292,16.083574 11.53725,2.963368 26.44174,4.552169 59.66397,6.360108 34.08956,1.855138 39.41329,3.162684 53.34022,13.10073 4.95585,3.536431 9.83313,6.114258 10.83838,5.728507 1.00525,-0.385753 5.97416,-3.54012 11.04201,-7.009706 5.06785,-3.469586 12.45601,-7.219123 16.41811,-8.332306 3.99884,-1.123499 19.81212,-2.70658 35.54332,-3.558271 50.35926,-2.726461 64.66726,-5.607102 87.58131,-17.6328 9.96044,-5.227414 14.75183,-10.670104 18.1852,-20.657103 0.99257,-2.887209 2.29826,-5.249471 2.90155,-5.249471 2.86364,0 15.83025,22.064934 19.15906,32.602482 11.28988,35.7388 1.86497,63.731323 -28.3713,84.264373 -4.51909,3.06887 -8.21654,6.23815 -8.21654,7.04285 0,0.80471 1.28117,3.26235 2.84705,5.46142 4.64298,6.52046 12.04033,23.58473 15.29436,35.28118 3.58387,12.88205 4.23058,36.78232 1.32397,48.93057 -2.40338,10.045 -11.22036,28.91802 -17.51706,37.49584 -2.7742,3.77923 -4.60681,7.30866 -4.07245,7.84317 0.53434,0.53451 82.87966,1.28288 182.98959,1.66304 l 182.01806,0.69121 -0.20249,4.48051 c -0.11143,2.46429 -3.03659,10.30631 -6.50046,17.42673 -9.62171,19.77855 -21.84525,29.43382 -48.59359,38.38364 l -9.67689,3.23782 -95.73213,0.44658 c -52.65267,0.24562 -95.73213,0.90298 -95.73213,1.4608 0,0.55782 3.28552,4.25891 7.30115,8.22466 l 7.30114,7.21044 h 107.29222 107.29223 l -1.27811,5.87526 c -0.70297,3.23139 -3.72958,11.03035 -6.72583,17.33103 -10.22897,21.5101 -26.88697,33.44794 -56.6756,40.61617 -3.42147,0.82334 -27.48395,1.88568 -53.47218,2.36078 l -47.25132,0.86381 2.84472,6.56647 2.84473,6.56646 h 52.33529 52.33531 l -2.80276,7.11064 c -4.74166,12.0297 -9.27481,18.47901 -20.58175,29.28159 -17.70723,16.91739 -42.70469,29.53084 -74.03529,37.35741 -21.49614,5.36987 -34.29089,6.94739 -55.98774,6.90297 -28.30034,-0.0579 -55.65283,-5.4619 -79.59771,-15.72588 l -6.03845,-2.58837 -10.65156,16.17848 c -11.98847,18.20908 -36.45651,43.94438 -54.41216,57.23027 -26.1934,19.38124 -59.44856,36.68917 -96.75212,50.35543 -12.29797,4.50538 -44.80586,14.3474 -47.38907,14.3474 -0.64106,0 3.80866,-3.74819 9.88828,-8.32931 24.56888,-18.51321 38.62303,-39.10885 45.72812,-67.01222 1.34892,-5.29756 2.00363,-5.81846 15.59853,-12.41064 50.08121,-24.28441 88.16913,-65.59975 96.88486,-105.0945 8.48992,-38.47157 0.0239,-81.80439 -22.58535,-115.60101 -8.71434,-13.02635 -31.95757,-35.27925 -44.58493,-42.68532 -5.83362,-3.42147 -10.62436,-6.55943 -10.64611,-6.97324 -0.0217,-0.41381 5.36058,-4.75192 11.96069,-9.64023 18.60645,-13.7807 36.47958,-32.13981 41.69656,-42.83031 13.20688,-27.06319 9.58503,-57.5687 -9.39046,-79.09236 -14.01329,-15.89511 -51.59566,-25.05581 -74.8141,-18.23593 -17.00707,4.99544 -32.94917,16.88094 -42.12707,31.40748 -2.24899,3.55966 -4.49654,6.47321 -4.99454,6.47456 -0.498,0.001 -2.45996,-2.65011 -4.35993,-5.89216 -11.43571,-19.51357 -38.82836,-34.53842 -63.16408,-34.64546 -26.15705,-0.11505 -51.52231,13.85827 -62.52711,34.4452 -11.78334,22.04336 -6.5878,58.25487 11.22731,78.25128 7.99267,8.97131 26.56545,24.71395 57.52066,48.75566 30.18312,23.44204 37.68381,30.3317 49.7191,45.66877 34.64286,44.14682 50.69328,98.58907 44.42371,150.68306 -4.53558,37.68643 -17.22673,74.36735 -33.24172,96.07773 -8.65822,11.73736 -22.25073,23.69147 -33.14668,29.1513 -8.35601,4.18711 -11.21915,5.06935 -12.07495,3.72075 -0.61697,-0.97226 -1.13131,-24.54489 -1.14295,-52.38362 l -0.0212,-50.61588 -6.30485,-2.40785 c -3.46766,-1.32432 -6.63,-2.08268 -7.02742,-1.68527 -0.39741,0.39742 -1.03023,21.45871 -1.40623,46.80287 -0.76287,51.41865 -1.74351,58.60831 -10.5588,77.41212 -5.66569,12.08544 -12.16428,19.87908 -22.03336,26.42419 -7.33678,4.86573 -20.64652,10.92198 -27.66526,12.58836 l -3.80164,0.90258 V 578.1808 472.0143 l -8.8992,-8.82009 -8.8992,-8.8201 -0.50995,95.26087 c -0.50397,94.1437 -0.54653,95.38247 -3.62875,105.62897 -5.33675,17.74143 -11.65387,29.222 -20.62817,37.48904 -8.502647,7.83254 -20.968557,14.71246 -33.154054,18.29762 l -7.289861,2.1448 z M 242.6054,462.76289 c -0.0241,-21.42846 -7.6,-51.29488 -18.67287,-73.61352 -12.05408,-24.2964 -28.41407,-43.88959 -50.45955,-60.4318 -17.26564,-12.95558 -44.40786,-27.61594 -46.77078,-25.26236 -0.49642,0.49445 -1.11098,7.61041 -1.3657,15.81324 -1.24412,40.06569 14.78367,77.87883 45.30369,106.88151 6.58869,6.26114 16.67015,14.61881 22.40323,18.57263 11.00781,7.59151 44.34753,25.29797 47.63388,25.29797 1.41522,0 1.93405,-1.95299 1.9281,-7.25767 z m 304.1391,5.85399 c 0,-2.79167 -17.07094,-35.37709 -23.5044,-44.86578 -9.56019,-14.10026 -24.70353,-31.04955 -35.21236,-39.41168 -5.03005,-4.00253 -9.46728,-6.95557 -9.86052,-6.56233 -0.39324,0.39324 0.22872,5.29018 1.38213,10.88208 3.07806,14.92277 5.05585,43.23604 4.0693,58.25467 l -0.86171,13.11835 7.70575,2.24013 c 8.74225,2.54143 25.56548,6.02745 32.78078,6.79264 10.7777,1.14298 23.50103,0.9004 23.50103,-0.44808 z M 273.78104,164.38249 c 4.71405,-9.30271 12.78925,-17.88461 21.06902,-22.39102 11.61677,-6.32264 20.75724,-7.88953 46.55089,-7.97991 12.9559,-0.0454 32.67531,-0.58234 43.82089,-1.1932 18.38801,-1.0078 21.07651,-1.49413 29.03068,-5.25145 15.74073,-7.43547 24.96207,-19.89336 27.68869,-37.40696 1.26087,-8.098837 -0.11847,-24.123241 -2.26087,-26.265648 -0.37811,-0.378125 -3.58501,2.535238 -7.12642,6.474137 -3.54141,3.938901 -8.17641,8.060127 -10.3,9.15828 -5.48048,2.834065 -24.74589,5.649898 -61.44402,8.980656 -37.97317,3.446482 -47.8305,5.316525 -58.7761,11.150469 -14.89071,7.936666 -24.68654,22.085576 -29.89042,43.173096 l -2.32444,9.41934 -2.56019,-10.1149 c -6.64363,-26.24808 -21.72031,-42.151215 -45.3814,-47.869037 -3.42147,-0.826816 -25.19448,-3.409887 -48.38447,-5.740157 -23.18998,-2.33027 -45.53943,-5.134136 -49.66544,-6.230813 -5.95716,-1.583394 -9.14859,-3.623539 -15.49951,-9.908191 -9.706323,-9.605044 -10.176578,-9.08524 -10.176578,11.248829 0,12.30735 0.42022,14.679829 3.829928,21.623029 4.811,9.79664 13.82774,18.18626 25.33115,23.56936 l 8.92146,4.17485 45.24095,1.07594 c 48.25279,1.14756 51.87259,1.65293 64.67426,9.02929 7.42201,4.27658 16.79281,14.59561 20.15335,22.19268 1.48849,3.36496 2.97779,6.1181 3.30957,6.1181 0.33178,0 2.20784,-3.16655 4.16902,-7.03677 z"
         id="path1286"
         transform="scale(0.26458333)" />
      <path
         style="fill:#753a14;fill-opacity:1;stroke-width:9.22189"
         d="m 323.8247,265.39282 c -15.12528,-3.82088 -30.669,-16.61561 -37.75004,-31.07375 -3.74593,-7.64845 -4.06233,-9.47886 -4.06233,-23.50103 0,-13.86549 0.34222,-15.90343 3.88049,-23.10877 22.33183,-45.47655 87.00054,-42.11154 103.33906,5.37721 9.56734,27.80795 -5.28565,59.21523 -32.91194,69.5937 -8.96219,3.36686 -24.70362,4.68092 -32.49524,2.71264 z m 27.45039,-23.53925 c 3.21939,-1.55849 8.39249,-5.58815 11.49576,-8.9548 8.73038,-9.47134 7.50051,-10.96623 -5.08621,-6.18227 -10.1915,3.87358 -31.80459,3.87322 -42.82661,-7e-4 -9.4099,-3.30731 -8.65346,-3.25495 -8.65346,-0.59897 0,3.99904 7.07593,11.49262 14.2081,15.04673 9.18718,4.57817 22.22825,4.86974 30.86242,0.69001 z m 8.8436,-33.57328 c 11.22281,-3.73678 12.26609,-6.98558 5.21284,-16.23301 -7.75295,-10.1648 -14.84421,-14.23609 -25.88239,-14.85981 -5.2201,-0.29496 -11.63468,0.17116 -14.25463,1.03582 -10.12212,3.3406 -22.57869,18.01134 -21.4914,25.31152 0.4427,2.9724 5.94202,5.55451 17.0168,7.98995 8.43827,1.85565 29.22159,0.14415 39.39878,-3.24447 z"
         id="path3116"
         transform="scale(0.26458333)" />
      <path
         style="fill:#753a14;fill-opacity:1;stroke-width:9.22189"
         d="m 264.8728,319.97767 c -9.65549,-10.997 -15.34718,-28.65006 -15.34718,-47.60006 0,-10.23289 0.3973,-12.0526 3.52749,-16.15649 9.41992,-12.35015 26.0943,-11.70997 35.74418,1.37232 5.72299,7.75863 2.29408,36.12071 -6.32106,52.28437 -4.48622,8.41701 -9.7501,14.98934 -12.00519,14.98934 -0.71787,0 -3.23708,-2.20027 -5.59824,-4.88948 z"
         id="path3155"
         transform="scale(0.26458333)" />
      <path
         style="fill:#753a14;fill-opacity:1;stroke-width:9.22189"
         d="m 190.93581,265.26812 c -8.79289,-2.06422 -21.1301,-9.43427 -27.88975,-16.66088 -29.4796,-31.51607 -13.15371,-82.44932 29.61872,-92.40403 23.40374,-5.4469 49.80216,8.14183 61.33775,31.57394 4.18084,8.4925 4.50878,10.16619 4.50878,23.01183 0,12.25585 -0.44268,14.79846 -3.83917,22.0511 -5.0423,10.76701 -11.72666,18.75327 -20.30179,24.25591 -13.14687,8.43632 -29.33513,11.48212 -43.43454,8.17213 z m 31.30881,-25.56208 c 3.21948,-2.25064 7.87537,-7.0976 10.34644,-10.77101 4.12927,-6.13846 4.49284,-7.56569 4.49284,-17.63709 0,-13.06884 -2.57189,-19.16012 -11.21276,-26.55639 -7.54673,-6.45972 -13.24793,-8.20664 -24.67561,-7.56092 -17.95577,1.0146 -29.68969,12.44382 -31.38208,30.56719 -1.09664,11.74366 1.51589,19.07291 9.56175,26.82477 9.40287,9.05929 12.53143,10.2454 25.58925,9.70149 10.00306,-0.41666 12.15581,-0.98575 17.28017,-4.56804 z"
         id="path3194"
         transform="scale(0.26458333)" />
      <path
         style="fill:#753a14;fill-opacity:1;stroke-width:9.22189"
         d="m 196.64831,224.54268 c -4.07066,-2.20837 -4.20232,-2.56777 -2.49574,-6.81257 1.20475,-2.99658 -0.55361,-7.61179 -3.58133,-9.39998 -3.07179,-1.81422 -2.15834,-4.57737 3.01474,-9.11939 7.0203,-6.1639 14.39783,-6.01875 20.82634,0.40976 3.93829,3.93828 4.7002,5.69831 4.7002,10.85744 0,6.82415 -3.89886,12.39584 -10.40513,14.86953 -4.82364,1.83394 -7.5278,1.65347 -12.05908,-0.80479 z"
         id="path3233"
         transform="scale(0.26458333)" />
      <path
         style="fill:none;stroke:#000000;stroke-width:0.264583px;stroke-linecap:butt;stroke-linejoin:miter;stroke-opacity:1"
         d="m 66.203202,173.37192 -6.949509,-6.58375"
         id="path3342" />
      <path
         style="fill:#4b3628;fill-opacity:1;stroke:#000000;stroke-width:3.1748;stroke-miterlimit:4;stroke-dasharray:none;stroke-opacity:1"
         d="m 237.61884,641.42435 -11.21557,-11.03305 10.52436,-5.0394 c 19.75785,-9.46064 40.15585,-33.94953 51.14664,-61.40423 13.68191,-34.17702 19.73007,-71.84469 16.74631,-104.29521 -5.3271,-57.93606 -33.05323,-110.1572 -76.70693,-144.47466 -47.86942,-37.63158 -57.87961,-45.90763 -69.26081,-57.2623 -14.02207,-13.98937 -18.73226,-22.16496 -22.23016,-38.58541 -8.0728,-37.89672 13.69998,-68.47592 54.47549,-76.50913 9.94979,-1.96022 11.97911,-1.9616 21.5261,-0.0147 23.79977,4.85346 43.46198,18.30797 54.08434,37.00898 l 3.28941,5.7911 3.76931,-6.05674 c 10.19612,-16.38368 24.18969,-28.0928 40.41963,-33.8211 23.59026,-8.32609 60.49452,-0.33037 75.9714,16.46006 11.79848,12.79984 19.47538,34.92601 17.70314,51.02353 -0.96318,8.74879 -4.28887,19.35703 -9.02149,28.77674 -3.91733,7.79695 -26.09188,29.70508 -41.84749,41.34474 -6.64421,4.90848 -12.08038,9.40262 -12.08038,9.98699 0,0.58436 2.02178,2.10151 4.49285,3.37141 15.75553,8.09694 37.43044,27.15412 49.34077,43.38172 19.80081,26.97828 28.38398,54.36765 28.159,89.85687 -0.14321,22.58874 -2.88922,34.39666 -12.18473,52.39448 -8.39916,16.26232 -13.63486,23.40305 -27.27972,37.20559 -18.09796,18.30711 -43.07537,35.64328 -65.30907,45.32932 l -8.8107,3.83836 -2.2273,8.86692 c -4.99785,19.89653 -15.70601,37.43714 -32.56157,53.33783 -8.00161,7.5483 -27.1491,21.67267 -29.24812,21.5752 -0.24703,-0.0111 -5.49614,-4.98573 -11.66471,-11.05392 z m 39.63622,-320.31689 c 7.07421,-8.05708 12.16223,-20.88964 14.64414,-36.93419 2.40858,-15.57048 1.95619,-21.15705 -2.27498,-28.09382 -4.1149,-6.74617 -10.41448,-9.99953 -19.3624,-9.99953 -8.9483,0 -15.24832,3.25378 -19.36125,9.99953 -5.85688,9.60605 -2.19281,41.39011 6.48184,56.22686 4.43421,7.58407 10.50963,13.94325 13.32106,13.94325 1.12023,0 4.06843,-2.31395 6.55159,-5.1421 z m -60.9658,-54.40695 c 19.76184,-4.55404 35.83816,-19.5481 41.71942,-38.91086 4.05497,-13.35011 3.1599,-28.86906 -2.33845,-40.54435 -4.69312,-9.96546 -17.97921,-23.69107 -27.22864,-28.1294 -21.48154,-10.3079 -48.04979,-5.6212 -65.11144,11.48581 -26.26558,26.33542 -20.95389,70.09428 10.82668,89.19253 13.01979,7.82414 27.70424,10.23118 42.13243,6.90627 z m 134.8989,-0.65782 c 16.47156,-4.28916 29.69348,-15.27084 37.02891,-30.75494 4.10214,-8.65904 4.38834,-10.25489 4.38834,-24.46971 0,-14.23341 -0.28249,-15.80287 -4.41423,-24.52505 -8.40901,-17.75156 -23.66661,-28.93 -43.1773,-31.63377 -25.18622,-3.49026 -48.29145,8.34406 -59.71226,30.58418 -4.43478,8.63596 -4.61548,9.60442 -4.64303,24.88344 -0.0271,15.02079 0.21341,16.40873 4.35966,25.16091 11.87882,25.07454 39.2066,37.77615 66.16991,30.75494 z"
         id="path3381"
         transform="scale(0.26458333)" />
      <path
         style="fill:#ffca00;fill-opacity:1;stroke:#000000;stroke-width:2.36451;stroke-miterlimit:4;stroke-dasharray:none;stroke-opacity:1"
         d="m 196.96905,243.41562 c -8.51542,-1.57785 -18.17596,-9.03401 -23.00828,-17.75815 -2.66545,-4.81214 -2.88898,-5.96691 -2.80959,-14.51447 0.0663,-7.13544 0.55554,-10.34502 2.1123,-13.85691 2.83619,-6.39812 9.25387,-12.99288 15.74713,-16.18163 4.85084,-2.38218 6.63249,-2.70817 14.80104,-2.70817 8.42711,0 9.76154,0.26327 14.42162,2.84531 6.59626,3.65482 12.34434,9.48913 15.41005,15.64121 2.05352,4.12087 2.42299,6.22861 2.40482,13.71898 -0.032,13.17458 -3.99924,20.64988 -14.77995,27.84896 -6.57856,4.39299 -16.47391,6.41484 -24.29914,4.96487 z m 14.41858,-17.72834 c 2.5006,-1.21051 5.32138,-3.64226 6.77775,-5.84299 2.16623,-3.2734 2.44283,-4.58206 2.10149,-9.94268 -0.47713,-7.49328 -3.18315,-11.83724 -9.02716,-14.49127 -8.06682,-3.66351 -16.21021,-1.63332 -21.22686,5.29196 -3.45291,4.7666 -3.51359,6.19162 -0.36898,8.66518 4.03174,3.17136 4.62468,5.13266 2.74399,9.07651 -1.45049,3.04171 -1.4829,3.66893 -0.25223,4.88153 4.78869,4.71834 12.444,5.65747 19.252,2.36176 z"
         id="path4937"
         transform="scale(0.26458333)" />
      <path
         style="fill:#ffca00;fill-opacity:1;stroke:#000000;stroke-width:1.18225;stroke-miterlimit:4;stroke-dasharray:none;stroke-opacity:1"
         d="m 324.04586,211.10204 c -3.79569,-0.44698 -10.17915,-2.1931 -15.52751,-4.24735 -2.43739,-0.93618 -3.72113,-1.73254 -4.217,-2.61599 -0.67211,-1.19745 -0.57091,-1.56044 1.76956,-6.34709 4.34259,-8.88133 8.53838,-13.30496 16.38034,-17.26981 4.68483,-2.36862 7.65172,-2.85241 15.97101,-2.60424 8.12509,0.24237 10.5466,0.92149 15.49364,4.34526 7.5794,5.24558 14.80823,14.66533 14.84048,19.33833 0.0137,1.98545 -1.20046,2.86089 -7.32062,5.27834 -5.77553,2.28133 -11.5339,3.47149 -20.01454,4.13666 -7.40184,0.58056 -12.35977,0.57654 -17.37536,-0.0141 z"
         id="path6029"
         transform="scale(0.26458333)" />
      <path
         style="fill:#ffca00;fill-opacity:1;stroke:#000000;stroke-width:1.18225;stroke-miterlimit:4;stroke-dasharray:none;stroke-opacity:1"
         d="m 329.46553,243.60444 c -9.05184,-2.0205 -17.83475,-8.38037 -21.65825,-15.68317 -0.73326,-1.40049 -1.21169,-2.66784 -1.06319,-2.81634 0.1485,-0.1485 1.13294,0.1435 2.18766,0.64889 3.10244,1.48658 11.13903,3.90508 14.93206,4.49358 2.14857,0.33337 7.99614,0.472 15.04477,0.35667 l 11.53015,-0.18864 8.21452,-2.84723 c 4.51799,-1.56598 8.31927,-2.74249 8.4473,-2.61446 0.12802,0.12802 -0.89184,1.91419 -2.26636,3.96927 -4.29198,6.41705 -10.94583,11.44268 -18.29521,13.81831 -4.98125,1.61015 -12.11184,1.97063 -17.07345,0.86312 z"
         id="path6068"
         transform="scale(0.26458333)" />
      <circle
         style="fill:#ffffff;fill-opacity:1;stroke:#000000;stroke-width:0.0668068;stroke-miterlimit:4;stroke-dasharray:none;stroke-opacity:1"
         id="path6129"
         cx="50.259918"
         cy="56.694382"
         r="1.8746023" />
      <path
         style="fill:#4b3628;fill-opacity:1;stroke:#000000;stroke-width:3.10341;stroke-miterlimit:4;stroke-dasharray:none;stroke-opacity:1"
         d="m 266.47096,162.84264 c -6.50624,-13.27841 -22.13608,-24.97469 -37.24395,-27.87076 -2.95698,-0.56683 -24.95104,-1.50254 -48.8757,-2.07936 l -43.49936,-1.04876 -9.05704,-4.28363 C 115.94018,121.95331 108.362,114.87456 103.33399,104.71129 99.825352,97.619185 99.695694,96.979712 99.379355,85.207008 99.199471,78.512535 99.344681,71.47668 99.702043,69.571776 l 0.649747,-3.463461 7.00867,7.354704 c 10.03622,10.531735 12.84588,11.24612 62.72696,15.948966 48.66786,4.588463 52.75155,5.281469 64.9222,11.017375 9.84662,4.64062 19.75637,14.53142 24.73969,24.69242 3.74829,7.64274 7.99812,21.53193 9.07521,29.65938 0.34497,2.60303 0.80838,4.55163 1.02978,4.33022 0.22141,-0.22142 1.08809,-4.11069 1.92596,-8.64284 5.40416,-29.23196 18.03279,-46.1148 40.20736,-53.752017 8.1833,-2.818439 20.05631,-4.548574 46.75998,-6.813861 37.59853,-3.189504 59.20748,-6.283439 65.11804,-9.323492 1.40643,-0.723388 5.42441,-4.412157 8.92884,-8.197264 7.45239,-8.049269 7.31734,-8.161 8.21543,6.796719 1.41399,23.549955 -10.62995,41.752185 -32.70626,49.429565 -7.90061,2.74756 -13.54929,3.13243 -62.75249,4.27558 l -34.70174,0.80623 -7.56521,2.93859 c -14.5488,5.65125 -24.182,14.05077 -30.25739,26.38244 l -3.24551,6.58763 z"
         id="path6598"
         transform="scale(0.26458333)" />
      <path
         style="fill:#ffffff;fill-opacity:1;stroke:#000000;stroke-width:0.199505;stroke-miterlimit:4;stroke-dasharray:none;stroke-opacity:1"
         d="m 517.10485,467.14127 c -7.25167,-1.05032 -25.2552,-5.4869 -29.65239,-7.30719 l -3.25951,-1.34932 0.67346,-13.94495 c 0.7521,-15.57338 -0.54874,-34.95057 -3.52214,-52.46568 -1.0411,-6.13269 -1.69345,-11.34981 -1.44965,-11.5936 0.73969,-0.73969 14.38277,10.85116 20.61049,17.51021 7.15573,7.65133 16.18624,18.73182 22.21671,27.26 4.26805,6.03579 22.24218,40.00158 22.24218,42.03113 0,1.15869 -19.57041,1.05992 -27.85915,-0.1406 z"
         id="path8122"
         transform="scale(0.26458333)" />
      <path
         style="fill:#4b3628;fill-opacity:1;stroke:#000000;stroke-width:3.1748;stroke-miterlimit:4;stroke-dasharray:none;stroke-opacity:1"
         d="m 510.75101,465.23501 c -5.10751,-1.01851 -13.02537,-2.99767 -17.59525,-4.39812 l -8.30887,-2.54629 -0.0373,-24.11176 c -0.0346,-22.39962 -1.02536,-34.68657 -3.97387,-49.28274 -0.29866,-1.47849 -0.17322,-2.68817 0.27875,-2.68817 0.45197,0 4.62077,3.2813 9.264,7.29177 9.09237,7.8533 24.9397,26.11769 32.26413,37.18511 4.1661,6.2951 21.34384,38.42025 21.34384,39.91644 0,1.433 -24.18339,0.43888 -33.23547,-1.36624 z"
         id="path8161"
         transform="scale(0.26458333)" />
      <path
         style="fill:#4b3628;fill-opacity:1;stroke:#000000;stroke-width:3.10341;stroke-miterlimit:4;stroke-dasharray:none;stroke-opacity:1"
         d="m 225.1728,461.52632 c -18.06142,-9.16441 -25.41364,-13.5665 -37.19089,-22.26778 -30.41897,-22.47416 -51.89603,-54.81923 -58.89324,-88.6949 -2.43911,-11.8085 -3.67992,-26.00969 -2.99986,-34.33377 0.81017,-9.91662 1.2078,-11.24554 3.36484,-11.24554 2.67334,0 21.37131,9.88274 32.08118,16.95637 45.94269,30.34415 72.64473,73.71164 78.93378,128.19846 1.92634,16.68933 1.90235,18.08999 -0.30984,18.08999 -0.97675,0 -7.72043,-3.01627 -14.98597,-6.70283 z"
         id="path8683"
         transform="scale(0.26458333)" />
    </g>
  </g>
</svg>
